<svg version="1.1" id="Layer_1" xmlns="http://www.w3.org/2000/svg" xmlns:xlink="http://www.w3.org/1999/xlink" x="0px"
       y="0px"
       width="100%" viewBox="0 0 103 96" enable-background="new 0 0 103 96" xml:space="preserve">
<path fill="#FEFFFF" opacity="1.000000" stroke="none"
      d="
M56.000000,97.000000
	C37.333336,97.000000 19.166674,97.000000 1.000007,97.000000
	C1.000005,65.000008 1.000005,33.000019 1.000002,1.000020
	C35.333317,1.000013 69.666634,1.000013 103.999969,1.000007
	C103.999977,32.999981 103.999977,64.999962 103.999985,96.999969
	C88.166664,97.000000 72.333336,97.000000 56.000000,97.000000
M28.961535,58.788326
	C29.978239,61.767570 31.144814,64.706291 31.964758,67.738739
	C32.634331,70.215065 33.857700,71.096474 36.498966,71.117249
	C39.517586,71.140991 40.173187,69.561867 40.824326,66.595192
	C43.222145,60.710430 45.619965,54.825668 48.097160,49.882786
	C48.097160,56.798595 48.097160,63.714409 48.097160,70.747482
	C50.942387,70.747482 53.179699,70.747482 55.611343,70.747482
	C55.611343,59.462463 55.611343,48.444435 55.611343,37.143288
	C52.226662,37.143288 49.116138,37.143288 45.294846,37.184975
	C42.607269,44.820774 39.919689,52.456570 36.626549,60.332520
	C35.625935,57.815739 34.625324,55.298954 33.466568,51.992912
	C32.218914,48.210896 30.757357,44.482685 29.788410,40.630566
	C28.949057,37.293659 27.086447,36.392471 23.126129,36.999039
	C21.332901,36.999039 19.539673,36.999039 17.502626,36.999039
	C17.502626,48.477585 17.502626,59.530128 17.502626,70.645660
	C19.825645,70.645660 21.860800,70.645660 24.136560,70.645660
	C24.136560,64.794266 24.028240,59.316151 24.218470,53.848419
	C24.261927,52.599342 25.335630,51.386112 26.093178,50.852657
	C27.042332,53.240761 27.991486,55.628864 28.961535,58.788326
M71.284904,50.898064
	C71.284904,46.325069 71.284904,41.752071 71.284904,37.320454
	C68.052528,37.320454 65.814529,37.320454 63.592781,37.320454
	C63.592781,48.701866 63.592781,59.731594 63.592781,70.703491
	C66.205292,70.703491 68.448730,70.703491 70.484085,70.703491
	C71.019440,65.555489 71.519264,60.749100 72.207771,56.607197
	C74.327316,59.794529 76.831314,62.796535 78.477776,66.211929
	C81.051300,71.550423 85.033073,71.762680 90.759369,70.332222
	C87.220062,65.348686 84.124741,60.688457 80.695816,56.288185
	C78.953720,54.052589 78.878639,52.470451 80.657486,50.220387
	C83.889885,46.131741 86.790207,41.780567 89.830589,37.536884
	C83.553825,35.572651 79.783623,37.684818 77.272049,42.979576
	C75.857498,45.961674 73.794655,48.636261 71.284904,50.898064
z"/>
<path fill="#0981FF" opacity="1.000000" stroke="none"
      d="
M72.023849,51.449379
	C73.794655,48.636261 75.857498,45.961674 77.272049,42.979576
	C79.783623,37.684818 83.553825,35.572651 89.830589,37.536884
	C86.790207,41.780567 83.889885,46.131741 80.657486,50.220387
	C78.878639,52.470451 78.953720,54.052589 80.695816,56.288185
	C84.124741,60.688457 87.220062,65.348686 90.759369,70.332222
	C85.033073,71.762680 81.051300,71.550423 78.477776,66.211929
	C76.831314,62.796535 74.327316,59.794529 72.114380,55.898743
	C72.021942,53.943321 72.022896,52.696350 72.023849,51.449379
z"/>
<path fill="#089FFF" opacity="1.000000" stroke="none"
      d="
M46.005615,37.143288
	C49.116138,37.143288 52.226662,37.143288 55.611343,37.143288
	C55.611343,48.444435 55.611343,59.462463 55.611343,70.747482
	C53.179699,70.747482 50.942387,70.747482 48.097160,70.747482
	C48.097160,63.714409 48.097160,56.798595 48.059395,49.256271
	C48.021629,48.629757 48.017555,48.318584 48.266586,48.052177
	C48.339817,46.521622 48.164021,45.257477 47.714561,43.764481
	C46.962471,41.404850 46.484043,39.274067 46.005615,37.143288
z"/>
<path fill="#1092FF" opacity="1.000000" stroke="none"
      d="
M71.654373,51.173721
	C72.022896,52.696350 72.021942,53.943321 72.020035,55.566502
	C71.519264,60.749100 71.019440,65.555489 70.484085,70.703491
	C68.448730,70.703491 66.205292,70.703491 63.592781,70.703491
	C63.592781,59.731594 63.592781,48.701866 63.592781,37.320454
	C65.814529,37.320454 68.052528,37.320454 71.284904,37.320454
	C71.284904,41.752071 71.284904,46.325069 71.654373,51.173721
z"/>
<path fill="#0FC3FF" opacity="1.000000" stroke="none"
      d="
M25.935169,50.156384
	C25.335630,51.386112 24.261927,52.599342 24.218470,53.848419
	C24.028240,59.316151 24.136560,64.794266 24.136560,70.645660
	C21.860800,70.645660 19.825645,70.645660 17.502626,70.645660
	C17.502626,59.530128 17.502626,48.477585 17.502626,36.999039
	C19.539673,36.999039 21.332901,36.999039 23.562235,37.470444
	C24.643951,42.013359 25.289560,46.084869 25.935169,50.156384
z"/>
<path fill="#0BAAFF" opacity="1.000000" stroke="none"
      d="
M45.650230,37.164131
	C46.484043,39.274067 46.962471,41.404850 47.583721,44.081718
	C47.823551,45.858070 47.920555,47.088326 48.017555,48.318584
	C48.017555,48.318584 48.021629,48.629757 48.019707,48.785332
	C45.619965,54.825668 43.222145,60.710430 40.280731,66.680031
	C38.902130,64.540703 38.067120,62.316536 37.232113,60.092369
	C39.919689,52.456570 42.607269,44.820774 45.650230,37.164131
z"/>
<path fill="#09B2FF" opacity="1.000000" stroke="none"
      d="
M36.929329,60.212444
	C38.067120,62.316536 38.902130,64.540703 40.059048,66.974808
	C40.173187,69.561867 39.517586,71.140991 36.498966,71.117249
	C33.857700,71.096474 32.634331,70.215065 31.964758,67.738739
	C31.144814,64.706291 29.978239,61.767570 29.330399,58.326904
	C31.007746,56.171047 32.316231,54.476608 33.624714,52.782173
	C34.625324,55.298954 35.625935,57.815739 36.929329,60.212444
z"/>
<path fill="#0AB9FF" opacity="1.000000" stroke="none"
      d="
M33.545639,52.387543
	C32.316231,54.476608 31.007746,56.171047 29.319950,57.941223
	C27.991486,55.628864 27.042332,53.240761 26.014174,50.504520
	C25.289560,46.084869 24.643951,42.013359 24.001846,37.538731
	C27.086447,36.392471 28.949057,37.293659 29.788410,40.630566
	C30.757357,44.482685 32.218914,48.210896 33.545639,52.387543
z"/>
<path fill="#43B9FF" opacity="1.000000" stroke="none"
      d="
M48.266586,48.052177
	C47.920555,47.088326 47.823551,45.858070 47.857384,44.310570
	C48.164021,45.257477 48.339817,46.521622 48.266586,48.052177
z"/>
</svg>
